<svg width="25" height="25" viewBox="0 0 40 40" fill="none" xmlns="http://www.w3.org/2000/svg">
<path d="M15.58 6.74254C16.1604 6.162 16.8495 5.70148 17.6079 5.38729C18.3663 5.07309 19.1791 4.91138 20 4.91138C20.8209 4.91138 21.6338 5.07309 22.3922 5.38729C23.1506 5.70148 23.8397 6.162 24.42 6.74254L33.2575 15.58C33.8381 16.1604 34.2986 16.8495 34.6128 17.6079C34.927 18.3663 35.0887 19.1791 35.0887 20C35.0887 20.8209 34.927 21.6338 34.6128 22.3922C34.2986 23.1506 33.8381 23.8397 33.2575 24.42L24.42 33.2575C23.8397 33.8381 23.1506 34.2986 22.3922 34.6128C21.6338 34.927 20.8209 35.0887 20 35.0887C19.1791 35.0887 18.3663 34.927 17.6079 34.6128C16.8495 34.2986 16.1604 33.8381 15.58 33.2575L6.74254 24.42C6.162 23.8397 5.70148 23.1506 5.38729 22.3922C5.07309 21.6338 4.91138 20.8209 4.91138 20C4.91138 19.1791 5.07309 18.3663 5.38729 17.6079C5.70148 16.8495 6.162 16.1604 6.74254 15.58L15.58 6.74254ZM22.6525 8.51004C22.3043 8.16157 21.8908 7.88513 21.4357 7.69653C20.9805 7.50792 20.4927 7.41084 20 7.41084C19.5074 7.41084 19.0196 7.50792 18.5644 7.69653C18.1093 7.88513 17.6958 8.16157 17.3475 8.51004L8.51004 17.3475C8.16157 17.6958 7.88513 18.1093 7.69653 18.5644C7.50792 19.0196 7.41084 19.5074 7.41084 20C7.41084 20.4927 7.50792 20.9805 7.69653 21.4357C7.88513 21.8908 8.16157 22.3043 8.51004 22.6525L17.3475 31.49C17.6958 31.8385 18.1093 32.115 18.5644 32.3036C19.0196 32.4922 19.5074 32.5892 20 32.5892C20.4927 32.5892 20.9805 32.4922 21.4357 32.3036C21.8908 32.115 22.3043 31.8385 22.6525 31.49L31.49 22.6525C31.8385 22.3043 32.115 21.8908 32.3036 21.4357C32.4922 20.9805 32.5892 20.4927 32.5892 20C32.5892 19.5074 32.4922 19.0196 32.3036 18.5644C32.115 18.1093 31.8385 17.6958 31.49 17.3475L22.6525 8.51004ZM20.365 11.615C20.5995 11.3807 20.9173 11.2491 21.2488 11.2491C21.5803 11.2491 21.8981 11.3807 22.1325 11.615L25.8825 15.365C25.999 15.4812 26.0913 15.6191 26.1543 15.771C26.2173 15.9228 26.2498 16.0856 26.2498 16.25C26.2498 16.4145 26.2173 16.5773 26.1543 16.7291C26.0913 16.881 25.999 17.0189 25.8825 17.135L22.1325 20.885C21.8978 21.1194 21.5796 21.251 21.2479 21.2507C20.9162 21.2505 20.5982 21.1185 20.3638 20.8838C20.1294 20.6491 19.9979 20.3309 19.9981 19.9992C19.9983 19.6675 20.1303 19.3494 20.365 19.115L21.9825 17.5H18.75C18.4185 17.5 18.1006 17.6317 17.8662 17.8662C17.6317 18.1006 17.5 18.4185 17.5 18.75V25C17.5 25.3316 17.3683 25.6495 17.1339 25.8839C16.8995 26.1184 16.5816 26.25 16.25 26.25C15.9185 26.25 15.6006 26.1184 15.3662 25.8839C15.1317 25.6495 15 25.3316 15 25V18.75C15 17.7555 15.3951 16.8017 16.0984 16.0984C16.8017 15.3951 17.7555 15 18.75 15H21.9825L20.365 13.385C20.2486 13.2689 20.1563 13.131 20.0933 12.9791C20.0302 12.8273 19.9978 12.6645 19.9978 12.5C19.9978 12.3356 20.0302 12.1728 20.0933 12.021C20.1563 11.8691 20.2486 11.7312 20.365 11.615Z" fill="#EFF7F5"/>
</svg>
