<svg width="25" height="25" viewBox="0 0 49 37" fill="none" xmlns="http://www.w3.org/2000/svg">
<path d="M47.6349 5.20416C47.4912 5.02891 47.31 4.88732 47.1043 4.78958C46.8987 4.69184 46.6737 4.64038 46.4455 4.63889H14.2854L15.2895 7.69444H44.422L40.2977 26.0278H17.1276L10.0685 3.92083C9.9921 3.68625 9.85951 3.47343 9.68199 3.30051C9.50447 3.12759 9.28729 2.99971 9.04898 2.92777L2.71582 1.00277C2.52108 0.943589 2.31647 0.922919 2.11366 0.941945C1.91084 0.960971 1.71381 1.01932 1.53379 1.11366C1.17024 1.30419 0.898106 1.62976 0.777253 2.01875C0.656399 2.40773 0.696728 2.82827 0.889367 3.18784C1.08201 3.54742 1.41117 3.81658 1.80446 3.93611L7.34984 5.61666L14.4399 27.7694L11.9066 29.8167L11.7058 30.0153C11.0792 30.7295 10.724 31.6375 10.7015 32.5829C10.6789 33.5282 10.9904 34.4518 11.5822 35.1944C12.0033 35.7008 12.5382 36.1028 13.1444 36.368C13.7506 36.6333 14.4111 36.7546 15.0732 36.7222H40.8538C41.2635 36.7222 41.6564 36.5613 41.946 36.2747C42.2357 35.9882 42.3985 35.5996 42.3985 35.1944C42.3985 34.7892 42.2357 34.4007 41.946 34.1141C41.6564 33.8276 41.2635 33.6667 40.8538 33.6667H14.8261C14.6482 33.6607 14.4749 33.6094 14.3229 33.5178C14.1709 33.4262 14.0454 33.2974 13.9584 33.1438C13.8714 32.9902 13.826 32.817 13.8265 32.641C13.8269 32.465 13.8733 32.292 13.961 32.1389L17.6837 29.0833H41.5334C41.8905 29.092 42.2396 28.9779 42.5212 28.7607C42.8028 28.5434 42.9996 28.2363 43.0781 27.8917L47.9747 6.50277C48.0217 6.27501 48.0155 6.03965 47.9566 5.81461C47.8977 5.58957 47.7877 5.38079 47.6349 5.20416Z" fill="white"/>
</svg>
