<svg width="20" height="20" viewBox="0 0 33 25" fill="none" xmlns="http://www.w3.org/2000/svg">
<path d="M30.1111 0.833252H2.8889C2.3732 0.833252 1.87863 1.03811 1.51397 1.40277C1.14932 1.76742 0.944458 2.262 0.944458 2.7777V22.2221C0.944458 22.7378 1.14932 23.2324 1.51397 23.5971C1.87863 23.9617 2.3732 24.1666 2.8889 24.1666H30.1111C30.6268 24.1666 31.1214 23.9617 31.4861 23.5971C31.8507 23.2324 32.0556 22.7378 32.0556 22.2221V2.7777C32.0556 2.262 31.8507 1.76742 31.4861 1.40277C31.1214 1.03811 30.6268 0.833252 30.1111 0.833252ZM28.6139 22.2221H4.50279L11.3083 15.1833L9.90835 13.8319L2.8889 21.0944V4.25547L14.9736 16.2819C15.3379 16.644 15.8308 16.8473 16.3445 16.8473C16.8582 16.8473 17.351 16.644 17.7153 16.2819L30.1111 3.95409V20.968L22.9556 13.8124L21.5847 15.1833L28.6139 22.2221ZM4.16251 2.7777H28.5361L16.3445 14.9013L4.16251 2.7777Z" fill="#EAFFF7"/>
</svg>
