<svg width="25" height="25" viewBox="0 0 50 50" fill="none" xmlns="http://www.w3.org/2000/svg">
<path d="M28.4063 3.93047C28.5922 3.93047 28.6992 3.93828 28.6992 3.93828H32.7796L32.7586 8.62578H28.7055C26.475 8.62578 26.5266 10.5304 26.5266 10.5304V17.9617H34.4188L33.3172 22.6429H26.5008V46.0695H21.818L21.8149 22.6429H15.5938L15.5813 17.9617H21.8172V10.6773C21.8179 4.32573 27.093 3.93042 28.4063 3.93042V3.93047ZM32.7796 3.93823H32.7875H32.7796ZM28.4063 0.80542C27.2828 0.80542 25.0874 0.991406 23.0077 2.24453C21.039 3.42891 18.6929 5.85464 18.6929 10.6766V14.8359H15.5819C14.7515 14.8359 13.9554 15.1671 13.3679 15.7547C13.0776 16.0461 12.8477 16.392 12.6914 16.7725C12.5351 17.153 12.4554 17.5605 12.457 17.9719L12.4695 22.6531C12.4757 24.3742 13.8734 25.7672 15.5945 25.7672H18.6906L18.6937 46.0687C18.6937 47.7945 20.093 49.1937 21.8187 49.1937H26.5016C28.2273 49.1937 29.6266 47.7945 29.6266 46.0687V25.7672H33.318C34.7047 25.7672 35.9257 24.8531 36.3164 23.5227L37.4179 18.8414C37.6953 17.8969 37.5108 16.8758 36.9203 16.0891C36.6297 15.7 36.2523 15.3842 35.8181 15.1666C35.384 14.9491 34.905 14.8358 34.4194 14.8359H29.6523V11.7523L32.7593 11.7508C34.4788 11.7508 35.8765 10.3609 35.8843 8.63984L35.9053 4.11094C35.9085 4.05344 35.9101 3.99587 35.9101 3.93828C35.9101 2.2125 34.514 0.813281 32.7882 0.813281H28.7875C28.6976 0.808594 28.5679 0.805469 28.4063 0.80542Z" fill="white"/>
</svg>
