<svg width="25" height="25" viewBox="0 0 50 50" fill="none" xmlns="http://www.w3.org/2000/svg">
<g clip-path="url(#clip0_15_90)">
<path d="M24.9512 0.195312C31.6895 0.195312 32.5195 0.244141 35.1562 0.341797C37.7441 0.439453 39.5508 0.878906 41.1621 1.51367C42.8223 2.14844 44.1895 2.97852 45.5566 4.3457C46.9238 5.71289 47.7539 7.08008 48.3887 8.74023C49.0234 10.3516 49.4629 12.1582 49.5605 14.7461C49.6582 17.3828 49.707 18.2129 49.707 24.9512C49.707 31.6895 49.6582 32.5195 49.5605 35.1562C49.4629 37.7441 49.0234 39.5508 48.3887 41.1621C47.7539 42.8223 46.9238 44.1895 45.5566 45.5566C44.1895 46.9238 42.8223 47.7539 41.1621 48.3887C39.5508 49.0234 37.7441 49.4629 35.1562 49.5605C32.5195 49.6582 31.6895 49.707 24.9512 49.707C18.2129 49.707 17.3828 49.6582 14.7461 49.5605C12.1582 49.4629 10.3516 49.0234 8.74023 48.3887C7.08008 47.7539 5.71289 46.9238 4.3457 45.5566C2.97852 44.1895 2.14844 42.8223 1.51367 41.1621C0.878906 39.5508 0.439453 37.7441 0.341797 35.1562C0.244141 32.5195 0.195312 31.6895 0.195312 24.9512C0.195312 18.2129 0.244141 17.3828 0.341797 14.7461C0.439453 12.1582 0.878906 10.3516 1.51367 8.74023C2.14844 7.08008 2.97852 5.71289 4.3457 4.3457C5.71289 2.97852 7.08008 2.14844 8.74023 1.51367C10.3516 0.878906 12.1582 0.439453 14.7461 0.341797C17.3828 0.244141 18.2129 0.195312 24.9512 0.195312ZM24.9512 3.41797C17.9199 3.41797 17.0898 3.4668 14.3555 3.56445C11.8164 3.66211 10.4004 4.15039 9.47266 4.49219C7.08008 5.46875 5.46875 7.08008 4.49219 9.47266C4.15039 10.4004 3.66211 11.8164 3.56445 14.3555C3.4668 17.0898 3.41797 17.9199 3.41797 24.9512C3.41797 31.9824 3.4668 32.8125 3.56445 35.5469C3.66211 38.0859 4.15039 39.502 4.49219 40.4297C5.46875 42.8223 7.08008 44.4336 9.47266 45.4102C10.4004 45.752 11.8164 46.2402 14.3555 46.3379C17.0898 46.4355 17.9199 46.4844 24.9512 46.4844C31.9824 46.4844 32.8125 46.4355 35.5469 46.3379C38.0859 46.2402 39.502 45.752 40.4297 45.4102C42.8223 44.4336 44.4336 42.8223 45.4102 40.4297C45.752 39.502 46.2402 38.0859 46.3379 35.5469C46.4355 32.8125 46.4844 31.9824 46.4844 24.9512C46.4844 17.9199 46.4355 17.0898 46.3379 14.3555C46.2402 11.8164 45.752 10.4004 45.4102 9.47266C44.4336 7.08008 42.8223 5.46875 40.4297 4.49219C39.502 4.15039 38.0859 3.66211 35.5469 3.56445C32.8125 3.4668 31.9824 3.41797 24.9512 3.41797ZM24.9512 34.8633C30.4199 34.8633 34.8633 30.4199 34.8633 24.9512C34.8633 19.4824 30.4199 15.0391 24.9512 15.0391C19.4824 15.0391 15.0391 19.4824 15.0391 24.9512C15.0391 30.4199 19.4824 34.8633 24.9512 34.8633ZM24.9512 12.2559C31.9824 12.2559 37.6465 17.9199 37.6465 24.9512C37.6465 31.9824 31.9824 37.6465 24.9512 37.6465C17.9199 37.6465 12.2559 31.9824 12.2559 24.9512C12.2559 17.9199 17.9199 12.2559 24.9512 12.2559ZM41.1621 11.7676C41.1621 13.4277 39.7949 14.6973 38.1348 14.6973C36.4746 14.6973 35.2051 13.4277 35.2051 11.7676C35.2051 10.1074 36.4746 8.74023 38.1348 8.74023C39.7949 8.74023 41.1621 10.1074 41.1621 11.7676Z" fill="white"/>
</g>
<defs>
<clipPath id="clip0_15_90">
<rect width="50" height="50" fill="white"/>
</clipPath>
</defs>
</svg>
