<svg width="20" height="20" viewBox="0 0 35 35" fill="none" xmlns="http://www.w3.org/2000/svg">
<path d="M27.0637 34.9999C26.7231 34.999 26.3835 34.9608 26.0507 34.886C19.7163 33.5459 13.8806 30.404 9.21524 25.8218C4.64947 21.2296 1.48286 15.3826 0.0985463 8.98841C-0.0646818 8.1915 -0.0246192 7.36504 0.21488 6.58855C0.454379 5.81205 0.885254 5.11166 1.46605 4.55474L5.51792 0.566518C5.72487 0.366369 5.97077 0.213099 6.23957 0.116711C6.50837 0.020323 6.79402 -0.017016 7.07789 0.00713079C7.37222 0.0385321 7.65625 0.135493 7.91001 0.291195C8.16376 0.446896 8.38108 0.657558 8.54669 0.908366L13.6115 8.56369C13.8015 8.86072 13.8931 9.21227 13.8731 9.56658C13.853 9.92089 13.7223 10.2593 13.5001 10.5319L10.9575 13.6396C11.9702 15.9315 13.4042 18.0029 15.1816 19.7411C16.9475 21.5423 19.0348 22.9805 21.3303 23.9779L24.4807 21.4192C24.7452 21.2054 25.0672 21.079 25.4038 21.0568C25.7403 21.0346 26.0755 21.1176 26.3648 21.2949L34.0127 26.3501C34.2751 26.5104 34.4987 26.7293 34.6667 26.9905C34.8347 27.2516 34.9427 27.5483 34.9826 27.8582C35.0226 28.1681 34.9934 28.4833 34.8974 28.78C34.8013 29.0768 34.6409 29.3475 34.428 29.5718L30.4774 33.5704C30.0287 34.027 29.496 34.3884 28.9102 34.6338C28.3243 34.8791 27.6968 35.0036 27.0637 34.9999ZM6.91581 2.05822L2.86394 6.04644C2.53721 6.35778 2.29535 6.75073 2.16215 7.18664C2.02894 7.62256 2.00898 8.08642 2.10422 8.53261C3.39142 14.5327 6.35029 20.0232 10.6233 24.3405C15.0137 28.6514 20.5054 31.6067 26.4661 32.866C26.9172 32.9624 27.3848 32.9429 27.8268 32.8091C28.2687 32.6753 28.6713 32.4315 28.9985 32.0994L32.9491 28.1008L25.5645 23.2217L22.1812 25.9772C22.0517 26.082 21.8991 26.1529 21.7366 26.1836C21.5742 26.2143 21.4069 26.2039 21.2493 26.1533C18.44 25.0948 15.8942 23.4146 13.7939 21.2328C11.6214 19.1581 9.93508 16.6085 8.86071 13.7743C8.81525 13.6027 8.81374 13.422 8.85632 13.2497C8.8989 13.0773 8.98413 12.9191 9.10382 12.7902L11.8388 9.44421L6.91581 2.05822Z" fill="#EAFFF7"/>
</svg>
