<svg width="25" height="25" viewBox="0 0 50 50" fill="none" xmlns="http://www.w3.org/2000/svg">
<path d="M45.7188 5.7603C45.2695 5.38796 44.7279 5.14411 44.1514 5.05462C43.5748 4.96512 42.9847 5.03332 42.4438 5.25197L5.11669 20.3207C4.51351 20.5686 3.99997 20.9941 3.64427 21.5406C3.28856 22.0872 3.10751 22.7291 3.12514 23.3809C3.14277 24.0328 3.35825 24.664 3.74298 25.1905C4.12771 25.7171 4.66349 26.1141 5.27919 26.3291L13.3334 29.1249L17.6979 43.5541C17.7063 43.5832 17.7334 43.602 17.7459 43.6291C17.7908 43.7442 17.8565 43.8501 17.9396 43.9416C18.0659 44.0826 18.2289 44.1857 18.4104 44.2395C18.4313 44.2478 18.4459 44.2666 18.4667 44.2707H18.4792L18.4854 44.2728C18.6466 44.3075 18.8141 44.2989 18.9709 44.2478C18.9875 44.2436 19.0042 44.2436 19.0229 44.2374C19.1735 44.1846 19.3097 44.0976 19.4209 43.9832C19.4334 43.9686 19.4542 43.9666 19.4667 43.9541L25.7438 37.0249L34.9042 44.1186C35.4604 44.5541 36.1459 44.7895 36.8521 44.7895C38.3813 44.7895 39.7 43.7186 40.0146 42.2249L46.8104 8.85405C46.9257 8.28754 46.8851 7.70036 46.6928 7.15515C46.5005 6.60993 46.1639 6.12712 45.7188 5.75822V5.7603ZM19.975 31.8645L18.5021 39.0249L15.4292 28.8624L30.6688 20.9249L20.2584 31.3374C20.1142 31.4814 20.0157 31.6648 19.975 31.8645V31.8645ZM37.9729 41.8061C37.9338 41.995 37.8468 42.1707 37.7202 42.3163C37.5936 42.4619 37.4317 42.5724 37.25 42.6374C37.0728 42.7056 36.8808 42.7265 36.6931 42.698C36.5053 42.6695 36.3282 42.5926 36.1792 42.4749L26.2563 34.7895C26.0488 34.6293 25.7887 34.5533 25.5277 34.5764C25.2666 34.5996 25.0239 34.7203 24.8479 34.9145L20.4792 39.7291L21.95 32.5895L36.9271 17.6103C37.1025 17.4343 37.2092 17.2015 37.228 16.9537C37.2468 16.706 37.1764 16.4597 37.0296 16.2593C36.8827 16.0589 36.6691 15.9175 36.4272 15.8608C36.1853 15.8041 35.9311 15.8357 35.7104 15.9499L14.1209 27.1957L5.96044 24.3582C5.74408 24.2868 5.55537 24.1496 5.42057 23.9659C5.28577 23.7822 5.21159 23.5611 5.20836 23.3332C5.19798 23.1034 5.25939 22.876 5.38408 22.6826C5.50876 22.4892 5.69054 22.3395 5.90419 22.2541L43.225 7.1853C43.4163 7.10405 43.6264 7.07777 43.8318 7.10942C44.0372 7.14107 44.2296 7.2294 44.3875 7.36447C44.5445 7.49153 44.6632 7.65973 44.7301 7.8503C44.7971 8.04086 44.8097 8.24629 44.7667 8.44364L37.9729 41.8082V41.8061Z" fill="white"/>
</svg>
